<svg id="Capa_1" enable-background="new 0 0 512 512" height="512" viewBox="0 0 512 512" width="512" xmlns="http://www.w3.org/2000/svg"><g><g fill="#b3f2ff"><path d="m241 227h30v60h-30z"/><path d="m194.477 353.372-121.894-17.27 4.248-29.707 121.894 17.27z"/><path d="m118.234 401.36h102.123v30.015h-102.123z" transform="matrix(.781 -.625 .625 .781 -223.005 196.998)"/></g><path d="m256 227h15v60h-15z" fill="#80eaff"/><path d="m317.523 353.372-4.248-29.707 121.894-17.27 4.248 29.707z" fill="#80eaff"/><path d="m327.697 365.306h30.015v102.123h-30.015z" fill="#80eaff" transform="matrix(.625 -.781 .781 .625 -196.51 423.884)"/><path d="m256 272c-41.4 0-75 33.6-75 75s33.6 75 75 75 75-33.6 75-75-33.6-75-75-75z" fill="#6cf"/><path d="m467 362c-24.814 0-45-20.186-45-45s20.186-45 45-45 45 20.186 45 45-20.186 45-45 45z" fill="#4da6ff"/><path d="m406 512c-24.814 0-45-20.186-45-45s20.186-45 45-45 45 20.186 45 45-20.186 45-45 45z" fill="#4da6ff"/><path d="m106 512c-24.814 0-45-20.186-45-45s20.186-45 45-45 45 20.186 45 45-20.186 45-45 45z" fill="#6cf"/><path d="m45 362c-24.814 0-45-20.186-45-45s20.186-45 45-45 45 20.186 45 45-20.186 45-45 45z" fill="#6cf"/><path d="m331 347c0 41.4-33.6 75-75 75v-150c41.4 0 75 33.6 75 75z" fill="#4da6ff"/><path d="m452 121h-5.099c-13.801-38.401-52.901-65.099-96.101-59.399-17.099-36.601-53.7-61.601-94.8-61.601s-77.701 25-94.799 61.601c-43.2-5.7-82.301 20.999-96.101 59.399h-5.1c-32.999 0-60 26.999-60 60 0 32.999 27.001 61 60 61h392c32.999 0 60-28.001 60-61 0-33.001-27.001-60-60-60z" fill="#e6f7ff"/><path d="m512 181c0 32.999-27.001 61-60 61h-196v-242c41.1 0 77.701 25 94.799 61.601 43.2-5.7 82.301 20.999 96.101 59.399h5.1c32.999 0 60 26.999 60 60z" fill="#cce6ff"/></g></svg>