<?xml version="1.0"?>
<svg xmlns="http://www.w3.org/2000/svg" id="Capa_1" enable-background="new 0 0 512 512" height="512px" viewBox="0 0 512 512" width="512px" class=""><g><g><path d="m452 242c33.084 0 60-26.916 60-60s-26.916-60-60-60h-5.14c-12.747-36.077-47.7-62-85.86-62-3.367 0-6.745.225-10.237.689-17.052-36.791-53.624-60.689-94.763-60.689-41.167 0-77.763 23.935-94.8 60.769-3.853-.505-7.64-.769-11.2-.769-38.731 0-72.367 26.215-84.88 62h-5.12c-33.084 0-60 26.916-60 60s26.916 60 60 60h181v31.509c-25.839 5.266-46.88 23.863-55.623 48.265l-96.258-13.639c-4.129-20.581-22.34-36.135-44.119-36.135-24.813 0-45 20.187-45 45s20.187 45 45 45c17.298 0 32.339-9.817 39.868-24.167l96.277 13.641c.628 10.617 3.481 20.64 8.089 29.624l-60.425 47.741c-6.911-4.328-15.07-6.84-23.809-6.84-24.813 0-45 20.187-45 45s20.187 45 45 45 45-20.187 45-45c0-5.15-.881-10.096-2.481-14.709l60.44-47.753c13.022 10.893 29.776 17.463 48.041 17.463 18.235 0 34.965-6.548 47.979-17.407l59.529 47.623c-1.618 4.633-2.508 9.606-2.508 14.784 0 24.813 20.187 45 45 45s45-20.187 45-45-20.187-45-45-45c-8.71 0-16.845 2.495-23.742 6.797l-59.53-47.624c4.63-9.004 7.497-19.052 8.127-29.699l96.277-13.641c7.529 14.35 22.57 24.167 39.868 24.167 24.813 0 45-20.187 45-45s-20.187-45-45-45c-21.779 0-39.99 15.554-44.119 36.136l-96.258 13.639c-8.743-24.402-29.784-42.999-55.623-48.265v-31.51zm-407 90c-8.271 0-15-6.729-15-15s6.729-15 15-15 15 6.729 15 15-6.729 15-15 15zm60 150c-8.271 0-15-6.729-15-15s6.729-15 15-15 15 6.729 15 15-6.729 15-15 15zm301-30c8.271 0 15 6.729 15 15s-6.729 15-15 15-15-6.729-15-15 6.729-15 15-15zm61-150c8.271 0 15 6.729 15 15s-6.729 15-15 15-15-6.729-15-15 6.729-15 15-15zm-166 45c0 24.813-20.187 45-45 45s-45-20.187-45-45 20.187-45 45-45 45 20.187 45 45zm-271-165c0-16.542 13.458-30 30-30h28.773l2.439-12.015c5.786-28.496 31.059-49.985 58.788-49.985 11.451 0 20.997 3.861 30.549 6.167l4.353-13.712c9.96-31.375 38.532-52.455 71.098-52.455s61.138 21.08 71.098 52.455l4.353 13.712c11.04-2.739 19.496-6.167 29.549-6.167 28.299 0 54.002 21.489 59.787 49.985l2.44 12.015h28.773c16.542 0 30 13.458 30 30s-13.458 30-30 30h-392c-16.542 0-30-13.458-30-30z" data-original="#000000" class="active-path" data-old_color="#000000" fill="#F03B3B"/></g></g> </svg>
